<?xml version="1.0" encoding="UTF-8" standalone="no"?>
<svg
   xmlns:dc="http://purl.org/dc/elements/1.1/"
   xmlns:cc="http://creativecommons.org/ns#"
   xmlns:rdf="http://www.w3.org/1999/02/22-rdf-syntax-ns#"
   xmlns:svg="http://www.w3.org/2000/svg"
   xmlns="http://www.w3.org/2000/svg"
   version="1.1"
   id="svg2"
   xml:space="preserve"
   width="669.33331"
   height="669.33331"
   viewBox="0 0 669.33331 669.33331"><metadata
     id="metadata8"><rdf:RDF><cc:Work
         rdf:about=""><dc:format>image/svg+xml</dc:format><dc:type
           rdf:resource="http://purl.org/dc/dcmitype/StillImage" /></cc:Work></rdf:RDF></metadata><defs
     id="defs6"><clipPath
       clipPathUnits="userSpaceOnUse"
       id="clipPath20"><path
         d="M 10,10 H 5010 V 5010 H 10 Z"
         id="path18" /></clipPath></defs><g
     id="g10"
     transform="matrix(1.3333333,0,0,-1.3333333,0,669.33333)"><g
       id="g12"
       transform="scale(0.1)"><g
         id="g14"><g
           id="g16"
           clip-path="url(#clipPath20)"><path
             d="M 1090,620 H 3790"
             style="fill:none;stroke:#000000;stroke-width:10;stroke-linecap:butt;stroke-linejoin:round;stroke-miterlimit:10;stroke-dasharray:none;stroke-opacity:1"
             id="path22" /><path
             d="M 1090,1230 H 3790"
             style="fill:none;stroke:#000000;stroke-width:10;stroke-linecap:butt;stroke-linejoin:round;stroke-miterlimit:10;stroke-dasharray:none;stroke-opacity:1"
             id="path24" /><path
             d="M 1090,1830 H 3790"
             style="fill:none;stroke:#000000;stroke-width:10;stroke-linecap:butt;stroke-linejoin:round;stroke-miterlimit:10;stroke-dasharray:none;stroke-opacity:1"
             id="path26" /><path
             d="M 1090,2440 H 3790"
             style="fill:none;stroke:#000000;stroke-width:10;stroke-linecap:butt;stroke-linejoin:round;stroke-miterlimit:10;stroke-dasharray:none;stroke-opacity:1"
             id="path28" /><path
             d="M 1090,3040 H 3790"
             style="fill:none;stroke:#000000;stroke-width:10;stroke-linecap:butt;stroke-linejoin:round;stroke-miterlimit:10;stroke-dasharray:none;stroke-opacity:1"
             id="path30" /><path
             d="M 1090,3650 H 3790"
             style="fill:none;stroke:#000000;stroke-width:10;stroke-linecap:butt;stroke-linejoin:round;stroke-miterlimit:10;stroke-dasharray:none;stroke-opacity:1"
             id="path32" /><path
             d="M 1090,620 V 3650"
             style="fill:none;stroke:#000000;stroke-width:10;stroke-linecap:butt;stroke-linejoin:round;stroke-miterlimit:10;stroke-dasharray:none;stroke-opacity:1"
             id="path34" /><path
             d="M 1630,620 V 3650"
             style="fill:none;stroke:#000000;stroke-width:10;stroke-linecap:butt;stroke-linejoin:round;stroke-miterlimit:10;stroke-dasharray:none;stroke-opacity:1"
             id="path36" /><path
             d="M 2170,620 V 3650"
             style="fill:none;stroke:#000000;stroke-width:10;stroke-linecap:butt;stroke-linejoin:round;stroke-miterlimit:10;stroke-dasharray:none;stroke-opacity:1"
             id="path38" /><path
             d="M 2710,620 V 3650"
             style="fill:none;stroke:#000000;stroke-width:10;stroke-linecap:butt;stroke-linejoin:round;stroke-miterlimit:10;stroke-dasharray:none;stroke-opacity:1"
             id="path40" /><path
             d="M 3250,620 V 3650"
             style="fill:none;stroke:#000000;stroke-width:10;stroke-linecap:butt;stroke-linejoin:round;stroke-miterlimit:10;stroke-dasharray:none;stroke-opacity:1"
             id="path42" /><path
             d="M 3790,620 V 3650"
             style="fill:none;stroke:#000000;stroke-width:10;stroke-linecap:butt;stroke-linejoin:round;stroke-miterlimit:10;stroke-dasharray:none;stroke-opacity:1"
             id="path44" /><path
             d="m 1090,620 h 540 v 610 h -540 z"
             style="fill:#f7c6e0;fill-opacity:1;fill-rule:nonzero;stroke:none"
             id="path46" /><path
             d="m 1090,620 h 540 v 610 h -540 z"
             style="fill:none;stroke:#000000;stroke-width:10;stroke-linecap:square;stroke-linejoin:miter;stroke-miterlimit:10;stroke-dasharray:none;stroke-opacity:1"
             id="path48" /><path
             d="m 1090,3040 h 540 v 610 h -540 z"
             style="fill:#f7c6e0;fill-opacity:1;fill-rule:nonzero;stroke:none"
             id="path50" /><path
             d="m 1090,3040 h 540 v 610 h -540 z"
             style="fill:none;stroke:#000000;stroke-width:10;stroke-linecap:square;stroke-linejoin:miter;stroke-miterlimit:10;stroke-dasharray:none;stroke-opacity:1"
             id="path52" /><path
             d="m 1090,1230 h 540 v 600 h -540 z"
             style="fill:#b3ddff;fill-opacity:1;fill-rule:nonzero;stroke:none"
             id="path54" /><path
             d="m 1090,1230 h 540 v 600 h -540 z"
             style="fill:none;stroke:#000000;stroke-width:10;stroke-linecap:square;stroke-linejoin:miter;stroke-miterlimit:10;stroke-dasharray:none;stroke-opacity:1"
             id="path56" /><path
             d="m 1090,1830 h 540 v 610 h -540 z"
             style="fill:#b3ddff;fill-opacity:1;fill-rule:nonzero;stroke:none"
             id="path58" /><path
             d="m 1090,1830 h 540 v 610 h -540 z"
             style="fill:none;stroke:#000000;stroke-width:10;stroke-linecap:square;stroke-linejoin:miter;stroke-miterlimit:10;stroke-dasharray:none;stroke-opacity:1"
             id="path60" /><path
             d="m 1090,2440 h 540 v 600 h -540 z"
             style="fill:#b3ddff;fill-opacity:1;fill-rule:nonzero;stroke:none"
             id="path62" /><path
             d="m 1090,2440 h 540 v 600 h -540 z"
             style="fill:none;stroke:#000000;stroke-width:10;stroke-linecap:square;stroke-linejoin:miter;stroke-miterlimit:10;stroke-dasharray:none;stroke-opacity:1"
             id="path64" /><path
             d="m 3250,620 h 540 v 610 h -540 z"
             style="fill:#f7c6e0;fill-opacity:1;fill-rule:nonzero;stroke:none"
             id="path66" /><path
             d="m 3250,620 h 540 v 610 h -540 z"
             style="fill:none;stroke:#000000;stroke-width:10;stroke-linecap:square;stroke-linejoin:miter;stroke-miterlimit:10;stroke-dasharray:none;stroke-opacity:1"
             id="path68" /><path
             d="m 3250,3040 h 540 v 610 h -540 z"
             style="fill:#f7c6e0;fill-opacity:1;fill-rule:nonzero;stroke:none"
             id="path70" /><path
             d="m 3250,3040 h 540 v 610 h -540 z"
             style="fill:none;stroke:#000000;stroke-width:10;stroke-linecap:square;stroke-linejoin:miter;stroke-miterlimit:10;stroke-dasharray:none;stroke-opacity:1"
             id="path72" /><path
             d="m 3250,1230 h 540 v 600 h -540 z"
             style="fill:#b3ddff;fill-opacity:1;fill-rule:nonzero;stroke:none"
             id="path74" /><path
             d="m 3250,1230 h 540 v 600 h -540 z"
             style="fill:none;stroke:#000000;stroke-width:10;stroke-linecap:square;stroke-linejoin:miter;stroke-miterlimit:10;stroke-dasharray:none;stroke-opacity:1"
             id="path76" /><path
             d="m 3250,1830 h 540 v 610 h -540 z"
             style="fill:#b3ddff;fill-opacity:1;fill-rule:nonzero;stroke:none"
             id="path78" /><path
             d="m 3250,1830 h 540 v 610 h -540 z"
             style="fill:none;stroke:#000000;stroke-width:10;stroke-linecap:square;stroke-linejoin:miter;stroke-miterlimit:10;stroke-dasharray:none;stroke-opacity:1"
             id="path80" /><path
             d="m 3250,2440 h 540 v 600 h -540 z"
             style="fill:#b3ddff;fill-opacity:1;fill-rule:nonzero;stroke:none"
             id="path82" /><path
             d="m 3250,2440 h 540 v 600 h -540 z"
             style="fill:none;stroke:#000000;stroke-width:10;stroke-linecap:square;stroke-linejoin:miter;stroke-miterlimit:10;stroke-dasharray:none;stroke-opacity:1"
             id="path84" /><path
             d="m 1630,620 h 540 v 610 h -540 z"
             style="fill:#b3ddff;fill-opacity:1;fill-rule:nonzero;stroke:none"
             id="path86" /><path
             d="m 1630,620 h 540 v 610 h -540 z"
             style="fill:none;stroke:#000000;stroke-width:10;stroke-linecap:square;stroke-linejoin:miter;stroke-miterlimit:10;stroke-dasharray:none;stroke-opacity:1"
             id="path88" /><path
             d="m 1630,3040 h 540 v 610 h -540 z"
             style="fill:#b3ddff;fill-opacity:1;fill-rule:nonzero;stroke:none"
             id="path90" /><path
             d="m 1630,3040 h 540 v 610 h -540 z"
             style="fill:none;stroke:#000000;stroke-width:10;stroke-linecap:square;stroke-linejoin:miter;stroke-miterlimit:10;stroke-dasharray:none;stroke-opacity:1"
             id="path92" /><path
             d="m 2170,620 h 540 v 610 h -540 z"
             style="fill:#b3ddff;fill-opacity:1;fill-rule:nonzero;stroke:none"
             id="path94" /><path
             d="m 2170,620 h 540 v 610 h -540 z"
             style="fill:none;stroke:#000000;stroke-width:10;stroke-linecap:square;stroke-linejoin:miter;stroke-miterlimit:10;stroke-dasharray:none;stroke-opacity:1"
             id="path96" /><path
             d="m 2170,3040 h 540 v 610 h -540 z"
             style="fill:#b3ddff;fill-opacity:1;fill-rule:nonzero;stroke:none"
             id="path98" /><path
             d="m 2170,3040 h 540 v 610 h -540 z"
             style="fill:none;stroke:#000000;stroke-width:10;stroke-linecap:square;stroke-linejoin:miter;stroke-miterlimit:10;stroke-dasharray:none;stroke-opacity:1"
             id="path100" /><path
             d="m 2710,620 h 540 v 610 h -540 z"
             style="fill:#b3ddff;fill-opacity:1;fill-rule:nonzero;stroke:none"
             id="path102" /><path
             d="m 2710,620 h 540 v 610 h -540 z"
             style="fill:none;stroke:#000000;stroke-width:10;stroke-linecap:square;stroke-linejoin:miter;stroke-miterlimit:10;stroke-dasharray:none;stroke-opacity:1"
             id="path104" /><path
             d="m 2710,3040 h 540 v 610 h -540 z"
             style="fill:#b3ddff;fill-opacity:1;fill-rule:nonzero;stroke:none"
             id="path106" /><path
             d="m 2710,3040 h 540 v 610 h -540 z"
             style="fill:none;stroke:#000000;stroke-width:10;stroke-linecap:square;stroke-linejoin:miter;stroke-miterlimit:10;stroke-dasharray:none;stroke-opacity:1"
             id="path108" /><path
             d="m 1630,1230 h 540 v 600 h -540 z"
             style="fill:#ffd9b3;fill-opacity:1;fill-rule:nonzero;stroke:none"
             id="path110" /><path
             d="m 1630,1230 h 540 v 600 h -540 z"
             style="fill:none;stroke:#000000;stroke-width:10;stroke-linecap:square;stroke-linejoin:miter;stroke-miterlimit:10;stroke-dasharray:none;stroke-opacity:1"
             id="path112" /><path
             d="m 1630,2440 h 540 v 600 h -540 z"
             style="fill:#ffd9b3;fill-opacity:1;fill-rule:nonzero;stroke:none"
             id="path114" /><path
             d="m 1630,2440 h 540 v 600 h -540 z"
             style="fill:none;stroke:#000000;stroke-width:10;stroke-linecap:square;stroke-linejoin:miter;stroke-miterlimit:10;stroke-dasharray:none;stroke-opacity:1"
             id="path116" /><path
             d="m 2710,1230 h 540 v 600 h -540 z"
             style="fill:#ffd9b3;fill-opacity:1;fill-rule:nonzero;stroke:none"
             id="path118" /><path
             d="m 2710,1230 h 540 v 600 h -540 z"
             style="fill:none;stroke:#000000;stroke-width:10;stroke-linecap:square;stroke-linejoin:miter;stroke-miterlimit:10;stroke-dasharray:none;stroke-opacity:1"
             id="path120" /><path
             d="m 2710,2440 h 540 v 600 h -540 z"
             style="fill:#ffd9b3;fill-opacity:1;fill-rule:nonzero;stroke:none"
             id="path122" /><path
             d="m 2710,2440 h 540 v 600 h -540 z"
             style="fill:none;stroke:#000000;stroke-width:10;stroke-linecap:square;stroke-linejoin:miter;stroke-miterlimit:10;stroke-dasharray:none;stroke-opacity:1"
             id="path124" /><path
             d="m 1630,1830 h 540 v 610 h -540 z"
             style="fill:#aff7ad;fill-opacity:1;fill-rule:nonzero;stroke:none"
             id="path126" /><path
             d="m 1630,1830 h 540 v 610 h -540 z"
             style="fill:none;stroke:#000000;stroke-width:10;stroke-linecap:square;stroke-linejoin:miter;stroke-miterlimit:10;stroke-dasharray:none;stroke-opacity:1"
             id="path128" /><path
             d="m 2170,1230 h 540 v 600 h -540 z"
             style="fill:#aff7ad;fill-opacity:1;fill-rule:nonzero;stroke:none"
             id="path130" /><path
             d="m 2170,1230 h 540 v 600 h -540 z"
             style="fill:none;stroke:#000000;stroke-width:10;stroke-linecap:square;stroke-linejoin:miter;stroke-miterlimit:10;stroke-dasharray:none;stroke-opacity:1"
             id="path132" /><path
             d="m 2170,2440 h 540 v 600 h -540 z"
             style="fill:#aff7ad;fill-opacity:1;fill-rule:nonzero;stroke:none"
             id="path134" /><path
             d="m 2170,2440 h 540 v 600 h -540 z"
             style="fill:none;stroke:#000000;stroke-width:10;stroke-linecap:square;stroke-linejoin:miter;stroke-miterlimit:10;stroke-dasharray:none;stroke-opacity:1"
             id="path136" /><path
             d="m 2710,1830 h 540 v 610 h -540 z"
             style="fill:#aff7ad;fill-opacity:1;fill-rule:nonzero;stroke:none"
             id="path138" /><path
             d="m 2710,1830 h 540 v 610 h -540 z"
             style="fill:none;stroke:#000000;stroke-width:10;stroke-linecap:square;stroke-linejoin:miter;stroke-miterlimit:10;stroke-dasharray:none;stroke-opacity:1"
             id="path140" /><path
             d="m 4060,2510 h 130 v 160 h -130 z"
             style="fill:#f7c6e0;fill-opacity:1;fill-rule:nonzero;stroke:none"
             id="path142" /><path
             d="m 4060,2510 h 130 v 160 h -130 z"
             style="fill:none;stroke:#000000;stroke-width:10;stroke-linecap:square;stroke-linejoin:miter;stroke-miterlimit:10;stroke-dasharray:none;stroke-opacity:1"
             id="path144" /><g
             id="g146"
             transform="scale(10)"><text
               transform="matrix(1,0,0,-1,423.979,254.852)"
               style="font-variant:normal;font-weight:normal;font-size:12px;font-family:Helvetica;-inkscape-font-specification:Helvetica;writing-mode:lr-tb;fill:#000000;fill-opacity:1;fill-rule:nonzero;stroke:none"
               id="text150"><tspan
                 x="0 8.0039997 14.676 21.348 28.02 34.692001 37.355999 44.028 47.363998"
                 y="0"
                 id="tspan148">Endpoint </tspan></text></g><path
             d="m 4060,2210 h 130 v 150 h -130 z"
             style="fill:#b3ddff;fill-opacity:1;fill-rule:nonzero;stroke:none"
             id="path152" /><path
             d="m 4060,2210 h 130 v 150 h -130 z"
             style="fill:none;stroke:#000000;stroke-width:10;stroke-linecap:square;stroke-linejoin:miter;stroke-miterlimit:10;stroke-dasharray:none;stroke-opacity:1"
             id="path154" /><g
             id="g156"
             transform="scale(10)"><text
               transform="matrix(1,0,0,-1,423.979,224.852)"
               style="font-variant:normal;font-weight:normal;font-size:12px;font-family:Helvetica;-inkscape-font-specification:Helvetica;writing-mode:lr-tb;fill:#000000;fill-opacity:1;fill-rule:nonzero;stroke:none"
               id="text160"><tspan
                 x="0 8.0039997 14.676 21.348 28.02"
                 y="0"
                 id="tspan158">Edge </tspan></text></g><path
             d="m 4060,1910 h 130 v 150 h -130 z"
             style="fill:#ffd9b3;fill-opacity:1;fill-rule:nonzero;stroke:none"
             id="path162" /><path
             d="m 4060,1910 h 130 v 150 h -130 z"
             style="fill:none;stroke:#000000;stroke-width:10;stroke-linecap:square;stroke-linejoin:miter;stroke-miterlimit:10;stroke-dasharray:none;stroke-opacity:1"
             id="path164" /><g
             id="g166"
             transform="scale(10)"><text
               transform="matrix(1,0,0,-1,424.319,194.852)"
               style="font-variant:normal;font-weight:normal;font-size:12px;font-family:Helvetica;-inkscape-font-specification:Helvetica;writing-mode:lr-tb;fill:#000000;fill-opacity:1;fill-rule:nonzero;stroke:none"
               id="text170"><tspan
                 x="0 8.0039997 14.676 24.672001 27.336 31.332001 38.004002 44.675999 51.348 58.02 64.692001 67.356003 74.028"
                 y="0"
                 id="tspan168">Semi-endpoint</tspan></text></g><path
             d="m 4060,1610 h 130 v 150 h -130 z"
             style="fill:#aff7ad;fill-opacity:1;fill-rule:nonzero;stroke:none"
             id="path172" /><path
             d="m 4060,1610 h 130 v 150 h -130 z"
             style="fill:none;stroke:#000000;stroke-width:10;stroke-linecap:square;stroke-linejoin:miter;stroke-miterlimit:10;stroke-dasharray:none;stroke-opacity:1"
             id="path174" /><g
             id="g176"
             transform="scale(10)"><text
               transform="matrix(1,0,0,-1,424.319,163.852)"
               style="font-variant:normal;font-weight:normal;font-size:12px;font-family:Helvetica;-inkscape-font-specification:Helvetica;writing-mode:lr-tb;fill:#000000;fill-opacity:1;fill-rule:nonzero;stroke:none"
               id="text320"><tspan
                 x="0 8.0039997 14.676 24.672001 27.336 31.332001 38.004002 44.675999 51.348 58.02"
                 y="0"
                 id="tspan178">Semi-edge </tspan><tspan
                 x="-305.659 -297.655 -289.651 -280.987 -277.651"
                 y="61"
                 id="tspan180">BAH 1</tspan><tspan
                 x="-307.32111 -295.9931 -287.98911 -279.3251 -275.98911"
                 y="75"
                 id="tspan182">WAH 2</tspan><tspan
                 x="-305.98907 -297.32507 -289.32108 -280.65707 -277.32108"
                 y="89"
                 id="tspan184">DAH 3</tspan><tspan
                 x="-305.659 -297.655 -289.651 -280.987 -277.651"
                 y="8"
                 id="tspan186">BAH 3</tspan><tspan
                 x="-305.98907 -297.32507 -289.32108 -280.65707 -277.32108"
                 y="22"
                 id="tspan188">DAH 3</tspan><tspan
                 x="-305.659 -297.655 -289.651 -280.987 -277.651"
                 y="-53"
                 id="tspan190">BAH 3</tspan><tspan
                 x="-305.98907 -297.32507 -289.32108 -280.65707 -277.32108"
                 y="-39"
                 id="tspan192">DAH 3</tspan><tspan
                 x="-305.659 -297.655 -289.651 -280.987 -277.651"
                 y="-113"
                 id="tspan194">BAH 3</tspan><tspan
                 x="-305.98907 -297.32507 -289.32108 -280.65707 -277.32108"
                 y="-99"
                 id="tspan196">DAH 3</tspan><tspan
                 x="-305.98907 -297.32507 -289.32108 -280.65707 -277.32108"
                 y="-181"
                 id="tspan198">DAH 1</tspan><tspan
                 x="-304.99298 -298.32098 -290.31699 -281.65298 -278.31699"
                 y="-167"
                 id="tspan200">LAH 2</tspan><tspan
                 x="-305.659 -297.655 -289.651 -280.987 -277.651"
                 y="-153"
                 id="tspan202">BAH 3</tspan><tspan
                 x="-291.65549"
                 y="121"
                 id="tspan204">1</tspan><tspan
                 x="-332.65549"
                 y="75"
                 id="tspan206">1</tspan><tspan
                 x="-251.659 -243.655 -235.651 -226.987 -223.651"
                 y="68"
                 id="tspan208">BAH 2</tspan><tspan
                 x="-253.32111 -241.99312 -233.98911 -225.32512 -221.98911"
                 y="82"
                 id="tspan210">WAH 2</tspan><tspan
                 x="-251.659 -243.655 -235.651 -226.987 -223.651"
                 y="1"
                 id="tspan212">BAH 4</tspan><tspan
                 x="-253.32111 -241.99312 -233.98911 -225.32512 -221.98911"
                 y="15"
                 id="tspan214">WAH 5</tspan><tspan
                 x="-251.98907 -243.32509 -235.32108 -226.65709 -223.32108"
                 y="29"
                 id="tspan216">DAH 6</tspan><tspan
                 x="-251.659 -243.655 -235.651 -226.987 -223.651"
                 y="-53"
                 id="tspan218">BAH 6</tspan><tspan
                 x="-251.98907 -243.32509 -235.32108 -226.65709 -223.32108"
                 y="-39"
                 id="tspan220">DAH 6</tspan><tspan
                 x="-251.98907 -243.32509 -235.32108 -226.65709 -223.32108"
                 y="-120"
                 id="tspan222">DAH 4</tspan><tspan
                 x="-250.99298 -244.32098 -236.31699 -227.65298 -224.31699"
                 y="-106"
                 id="tspan224">LAH 5</tspan><tspan
                 x="-251.659 -243.655 -235.651 -226.987 -223.651"
                 y="-92"
                 id="tspan226">BAH 6</tspan><tspan
                 x="-251.98907 -243.32509 -235.32108 -226.65709 -223.32108"
                 y="-174"
                 id="tspan228">DAH 2</tspan><tspan
                 x="-250.99298 -244.32098 -236.31699 -227.65298 -224.31699"
                 y="-160"
                 id="tspan230">LAH 2</tspan><tspan
                 x="-237.65549"
                 y="121"
                 id="tspan232">2</tspan><tspan
                 x="-332.65549"
                 y="15"
                 id="tspan234">2</tspan><tspan
                 x="-197.65948 -189.65549 -181.65149 -172.98749 -169.65149"
                 y="68"
                 id="tspan236">BAH 2</tspan><tspan
                 x="-199.32159 -187.99359 -179.98959 -171.32559 -167.98959"
                 y="82"
                 id="tspan238">WAH 2</tspan><tspan
                 x="-197.65948 -189.65549 -181.65149 -172.98749 -169.65149"
                 y="8"
                 id="tspan240">BAH 5</tspan><tspan
                 x="-199.32159 -187.99359 -179.98959 -171.32559 -167.98959"
                 y="22"
                 id="tspan242">WAH 5</tspan><tspan
                 x="-183.65599"
                 y="-46"
                 id="tspan244">7</tspan><tspan
                 x="-197.98959 -189.32559 -181.32159 -172.65759 -169.32159"
                 y="-113"
                 id="tspan246">DAH 5</tspan><tspan
                 x="-196.9935 -190.3215 -182.3175 -173.6535 -170.3175"
                 y="-99"
                 id="tspan248">LAH 5</tspan><tspan
                 x="-197.98959 -189.32559 -181.32159 -172.65759 -169.32159"
                 y="-174"
                 id="tspan250">DAH 2</tspan><tspan
                 x="-196.9935 -190.3215 -182.3175 -173.6535 -170.3175"
                 y="-160"
                 id="tspan252">LAH 2</tspan><tspan
                 x="-183.65601"
                 y="121"
                 id="tspan254">3</tspan><tspan
                 x="-332.65601"
                 y="-46"
                 id="tspan256">3</tspan><tspan
                 x="-143.66 -135.65601 -127.652 -118.98801 -115.652"
                 y="68"
                 id="tspan258">BAH 2</tspan><tspan
                 x="-145.32211 -133.99411 -125.99011 -117.32611 -113.99011"
                 y="82"
                 id="tspan260">WAH 2</tspan><tspan
                 x="-145.32211 -133.99411 -125.99011 -117.32611 -113.99011"
                 y="1"
                 id="tspan262">WAH 4</tspan><tspan
                 x="-143.66 -135.65601 -127.652 -118.98801 -115.652"
                 y="15"
                 id="tspan264">BAH 5</tspan><tspan
                 x="-142.99399 -136.32199 -128.31799 -119.65399 -116.31799"
                 y="29"
                 id="tspan266">LAH 6</tspan><tspan
                 x="-142.99399 -136.32199 -128.31799 -119.65399 -116.31799"
                 y="-53"
                 id="tspan268">LAH 6</tspan><tspan
                 x="-145.32211 -133.99413 -125.99012 -117.32612 -113.99012"
                 y="-39"
                 id="tspan270">WAH 6</tspan><tspan
                 x="-142.99399 -136.32199 -128.31799 -119.65399 -116.31799"
                 y="-120"
                 id="tspan272">LAH 4</tspan><tspan
                 x="-143.99008 -135.32608 -127.32208 -118.65808 -115.32208"
                 y="-106"
                 id="tspan274">DAH 5</tspan><tspan
                 x="-145.32211 -133.99411 -125.99011 -117.32611 -113.99011"
                 y="-92"
                 id="tspan276">WAH 6</tspan><tspan
                 x="-143.99008 -135.32608 -127.32208 -118.65808 -115.32208"
                 y="-174"
                 id="tspan278">DAH 2</tspan><tspan
                 x="-142.99399 -136.32199 -128.31799 -119.65399 -116.31799"
                 y="-160"
                 id="tspan280">LAH 2</tspan><tspan
                 x="-129.65649"
                 y="121"
                 id="tspan282">4</tspan><tspan
                 x="-332.65649"
                 y="-106"
                 id="tspan284">4</tspan><tspan
                 x="-91.322487 -79.994492 -71.990486 -63.326488 -59.990486"
                 y="61"
                 id="tspan286">WAH 1</tspan><tspan
                 x="-89.660378 -81.65638 -73.652374 -64.98838 -61.652378"
                 y="75"
                 id="tspan288">BAH 2</tspan><tspan
                 x="-88.994362 -82.322365 -74.318359 -65.654366 -62.318363"
                 y="89"
                 id="tspan290">LAH 3</tspan><tspan
                 x="-88.994362 -82.322365 -74.318359 -65.654366 -62.318363"
                 y="8"
                 id="tspan292">LAH 3</tspan><tspan
                 x="-91.322495 -79.994492 -71.990494 -63.326492 -59.990494"
                 y="22"
                 id="tspan294">WAH 3</tspan><tspan
                 x="-88.994362 -82.322365 -74.318359 -65.654366 -62.318363"
                 y="-53"
                 id="tspan296">LAH 3</tspan><tspan
                 x="-91.322495 -79.994492 -71.990494 -63.326492 -59.990494"
                 y="-39"
                 id="tspan298">WAH 3</tspan><tspan
                 x="-88.994362 -82.322365 -74.318359 -65.654366 -62.318363"
                 y="-113"
                 id="tspan300">LAH 3</tspan><tspan
                 x="-91.322495 -79.994492 -71.990494 -63.326492 -59.990494"
                 y="-99"
                 id="tspan302">WAH 3</tspan><tspan
                 x="-88.994362 -82.322365 -74.318359 -65.654366 -62.318363"
                 y="-181"
                 id="tspan304">LAH 1</tspan><tspan
                 x="-89.990456 -81.326454 -73.322456 -64.658455 -61.322456"
                 y="-167"
                 id="tspan306">DAH 2</tspan><tspan
                 x="-91.322487 -79.994484 -71.990486 -63.326485 -59.990486"
                 y="-153"
                 id="tspan308">WAH 3</tspan><tspan
                 x="-75.656883"
                 y="121"
                 id="tspan310">5</tspan><tspan
                 x="-332.65689"
                 y="-167"
                 id="tspan312">5</tspan><tspan
                 x="-224.33589 -216.33188 -209.65988 -202.98788 -196.98788 -193.65189 -189.65588 -182.98389 -179.64789 -172.97589 -162.97989 -156.30789 -149.63588 -145.63989 -138.96788"
                 y="136"
                 id="tspan314">Spectrotemporal</tspan><tspan
                 x="-395.99588 -387.99188 -377.99588 -371.32388 -368.65988 -365.99588 -362.65988 -355.98788 -349.31589"
                 y="-53"
                 id="tspan316">Amplitude</tspan><tspan
                 x="-394.33417 -386.33017 -379.65817 -373.65817 -366.98618 -364.32217 -357.65018 -350.97818"
                 y="-39"
                 id="tspan318">Envelope</tspan></text><text
               transform="matrix(1,0,0,-1,76.494634,40.725)"
               style="font-variant:normal;font-weight:normal;font-size:18px;font-family:Helvetica;-inkscape-font-specification:Helvetica;writing-mode:lr-tb;fill:#000000;fill-opacity:1;fill-rule:nonzero;stroke:none"
               id="text330"><tspan
                 x="0 12.006 24.011999"
                 y="0"
                 id="tspan322">BAH</tspan><tspan
                 x="-0.49492201 12.501078 24.507078"
                 y="-333"
                 id="tspan324">DAH</tspan><tspan
                 x="294.50708 311.49908 323.50507"
                 y="0"
                 id="tspan326">WAH</tspan><tspan
                 x="297.99887 308.00687 320.01288"
                 y="-333"
                 id="tspan328">LAH</tspan></text></g></g></g></g></g></svg>
