<?xml version="1.0" encoding="UTF-8" standalone="no"?>
<svg
   xmlns:dc="http://purl.org/dc/elements/1.1/"
   xmlns:cc="http://creativecommons.org/ns#"
   xmlns:rdf="http://www.w3.org/1999/02/22-rdf-syntax-ns#"
   xmlns:svg="http://www.w3.org/2000/svg"
   xmlns="http://www.w3.org/2000/svg"
   version="1.1"
   id="svg2"
   xml:space="preserve"
   width="669.33331"
   height="669.33331"
   viewBox="0 200 669.33331 500"><metadata
     id="metadata8"><rdf:RDF><cc:Work
         rdf:about=""><dc:format>image/svg+xml</dc:format><dc:type
           rdf:resource="http://purl.org/dc/dcmitype/StillImage" /></cc:Work></rdf:RDF></metadata><defs
     id="defs6"><clipPath
       clipPathUnits="userSpaceOnUse"
       id="clipPath20"><path
         d="M 10,10 H 5010 V 5010 H 10 Z"
         id="path18" /></clipPath></defs><g
     id="g10"
     transform="matrix(1.3333333,0,0,-1.3333333,0,669.33333)"><g
       id="g12"
       transform="scale(0.1)"><g
         id="g14"><g
           id="g16"
           clip-path="url(#clipPath20)"><path
             d="M 980,990 H 3750"
             style="fill:none;stroke:#000000;stroke-width:10;stroke-linecap:butt;stroke-linejoin:round;stroke-miterlimit:10;stroke-dasharray:none;stroke-opacity:1"
             id="path22" /><path
             d="M 980,1540 H 3750"
             style="fill:none;stroke:#000000;stroke-width:10;stroke-linecap:butt;stroke-linejoin:round;stroke-miterlimit:10;stroke-dasharray:none;stroke-opacity:1"
             id="path24" /><path
             d="M 980,2100 H 3750"
             style="fill:none;stroke:#000000;stroke-width:10;stroke-linecap:butt;stroke-linejoin:round;stroke-miterlimit:10;stroke-dasharray:none;stroke-opacity:1"
             id="path26" /><path
             d="M 980,2650 H 3750"
             style="fill:none;stroke:#000000;stroke-width:10;stroke-linecap:butt;stroke-linejoin:round;stroke-miterlimit:10;stroke-dasharray:none;stroke-opacity:1"
             id="path28" /><path
             d="M 980,3210 H 3750"
             style="fill:none;stroke:#000000;stroke-width:10;stroke-linecap:butt;stroke-linejoin:round;stroke-miterlimit:10;stroke-dasharray:none;stroke-opacity:1"
             id="path30" /><path
             d="M 980,3760 H 3750"
             style="fill:none;stroke:#000000;stroke-width:10;stroke-linecap:butt;stroke-linejoin:round;stroke-miterlimit:10;stroke-dasharray:none;stroke-opacity:1"
             id="path32" /><path
             d="M 980,990 V 3760"
             style="fill:none;stroke:#000000;stroke-width:10;stroke-linecap:butt;stroke-linejoin:round;stroke-miterlimit:10;stroke-dasharray:none;stroke-opacity:1"
             id="path34" /><path
             d="M 1530,990 V 3760"
             style="fill:none;stroke:#000000;stroke-width:10;stroke-linecap:butt;stroke-linejoin:round;stroke-miterlimit:10;stroke-dasharray:none;stroke-opacity:1"
             id="path36" /><path
             d="M 2090,990 V 3760"
             style="fill:none;stroke:#000000;stroke-width:10;stroke-linecap:butt;stroke-linejoin:round;stroke-miterlimit:10;stroke-dasharray:none;stroke-opacity:1"
             id="path38" /><path
             d="M 2640,990 V 3760"
             style="fill:none;stroke:#000000;stroke-width:10;stroke-linecap:butt;stroke-linejoin:round;stroke-miterlimit:10;stroke-dasharray:none;stroke-opacity:1"
             id="path40" /><path
             d="M 3200,990 V 3760"
             style="fill:none;stroke:#000000;stroke-width:10;stroke-linecap:butt;stroke-linejoin:round;stroke-miterlimit:10;stroke-dasharray:none;stroke-opacity:1"
             id="path42" /><path
             d="M 3750,990 V 3760"
             style="fill:none;stroke:#000000;stroke-width:10;stroke-linecap:butt;stroke-linejoin:round;stroke-miterlimit:10;stroke-dasharray:none;stroke-opacity:1"
             id="path44" /><path
             d="m 980,990 h 550 v 550 H 980 Z"
             style="fill:#f7c6e0;fill-opacity:1;fill-rule:nonzero;stroke:none"
             id="path46" /><path
             d="m 980,990 h 550 v 550 H 980 Z"
             style="fill:none;stroke:#000000;stroke-width:10;stroke-linecap:square;stroke-linejoin:miter;stroke-miterlimit:10;stroke-dasharray:none;stroke-opacity:1"
             id="path48" /><path
             d="m 980,3210 h 550 v 550 H 980 Z"
             style="fill:#f7c6e0;fill-opacity:1;fill-rule:nonzero;stroke:none"
             id="path50" /><path
             d="m 980,3210 h 550 v 550 H 980 Z"
             style="fill:none;stroke:#000000;stroke-width:10;stroke-linecap:square;stroke-linejoin:miter;stroke-miterlimit:10;stroke-dasharray:none;stroke-opacity:1"
             id="path52" /><path
             d="m 980,1540 h 550 v 560 H 980 Z"
             style="fill:#b3ddff;fill-opacity:1;fill-rule:nonzero;stroke:none"
             id="path54" /><path
             d="m 980,1540 h 550 v 560 H 980 Z"
             style="fill:none;stroke:#000000;stroke-width:10;stroke-linecap:square;stroke-linejoin:miter;stroke-miterlimit:10;stroke-dasharray:none;stroke-opacity:1"
             id="path56" /><path
             d="m 980,2100 h 550 v 550 H 980 Z"
             style="fill:#b3ddff;fill-opacity:1;fill-rule:nonzero;stroke:none"
             id="path58" /><path
             d="m 980,2100 h 550 v 550 H 980 Z"
             style="fill:none;stroke:#000000;stroke-width:10;stroke-linecap:square;stroke-linejoin:miter;stroke-miterlimit:10;stroke-dasharray:none;stroke-opacity:1"
             id="path60" /><path
             d="m 980,2650 h 550 v 560 H 980 Z"
             style="fill:#b3ddff;fill-opacity:1;fill-rule:nonzero;stroke:none"
             id="path62" /><path
             d="m 980,2650 h 550 v 560 H 980 Z"
             style="fill:none;stroke:#000000;stroke-width:10;stroke-linecap:square;stroke-linejoin:miter;stroke-miterlimit:10;stroke-dasharray:none;stroke-opacity:1"
             id="path64" /><path
             d="m 3200,990 h 550 v 550 h -550 z"
             style="fill:#f7c6e0;fill-opacity:1;fill-rule:nonzero;stroke:none"
             id="path66" /><path
             d="m 3200,990 h 550 v 550 h -550 z"
             style="fill:none;stroke:#000000;stroke-width:10;stroke-linecap:square;stroke-linejoin:miter;stroke-miterlimit:10;stroke-dasharray:none;stroke-opacity:1"
             id="path68" /><path
             d="m 3200,3210 h 550 v 550 h -550 z"
             style="fill:#f7c6e0;fill-opacity:1;fill-rule:nonzero;stroke:none"
             id="path70" /><path
             d="m 3200,3210 h 550 v 550 h -550 z"
             style="fill:none;stroke:#000000;stroke-width:10;stroke-linecap:square;stroke-linejoin:miter;stroke-miterlimit:10;stroke-dasharray:none;stroke-opacity:1"
             id="path72" /><path
             d="m 3200,1540 h 550 v 560 h -550 z"
             style="fill:#b3ddff;fill-opacity:1;fill-rule:nonzero;stroke:none"
             id="path74" /><path
             d="m 3200,1540 h 550 v 560 h -550 z"
             style="fill:none;stroke:#000000;stroke-width:10;stroke-linecap:square;stroke-linejoin:miter;stroke-miterlimit:10;stroke-dasharray:none;stroke-opacity:1"
             id="path76" /><path
             d="m 3200,2100 h 550 v 550 h -550 z"
             style="fill:#b3ddff;fill-opacity:1;fill-rule:nonzero;stroke:none"
             id="path78" /><path
             d="m 3200,2100 h 550 v 550 h -550 z"
             style="fill:none;stroke:#000000;stroke-width:10;stroke-linecap:square;stroke-linejoin:miter;stroke-miterlimit:10;stroke-dasharray:none;stroke-opacity:1"
             id="path80" /><path
             d="m 3200,2650 h 550 v 560 h -550 z"
             style="fill:#b3ddff;fill-opacity:1;fill-rule:nonzero;stroke:none"
             id="path82" /><path
             d="m 3200,2650 h 550 v 560 h -550 z"
             style="fill:none;stroke:#000000;stroke-width:10;stroke-linecap:square;stroke-linejoin:miter;stroke-miterlimit:10;stroke-dasharray:none;stroke-opacity:1"
             id="path84" /><path
             d="m 1530,990 h 560 v 550 h -560 z"
             style="fill:#b3ddff;fill-opacity:1;fill-rule:nonzero;stroke:none"
             id="path86" /><path
             d="m 1530,990 h 560 v 550 h -560 z"
             style="fill:none;stroke:#000000;stroke-width:10;stroke-linecap:square;stroke-linejoin:miter;stroke-miterlimit:10;stroke-dasharray:none;stroke-opacity:1"
             id="path88" /><path
             d="m 1530,3210 h 560 v 550 h -560 z"
             style="fill:#b3ddff;fill-opacity:1;fill-rule:nonzero;stroke:none"
             id="path90" /><path
             d="m 1530,3210 h 560 v 550 h -560 z"
             style="fill:none;stroke:#000000;stroke-width:10;stroke-linecap:square;stroke-linejoin:miter;stroke-miterlimit:10;stroke-dasharray:none;stroke-opacity:1"
             id="path92" /><path
             d="m 2090,990 h 550 v 550 h -550 z"
             style="fill:#b3ddff;fill-opacity:1;fill-rule:nonzero;stroke:none"
             id="path94" /><path
             d="m 2090,990 h 550 v 550 h -550 z"
             style="fill:none;stroke:#000000;stroke-width:10;stroke-linecap:square;stroke-linejoin:miter;stroke-miterlimit:10;stroke-dasharray:none;stroke-opacity:1"
             id="path96" /><path
             d="m 2090,3210 h 550 v 550 h -550 z"
             style="fill:#b3ddff;fill-opacity:1;fill-rule:nonzero;stroke:none"
             id="path98" /><path
             d="m 2090,3210 h 550 v 550 h -550 z"
             style="fill:none;stroke:#000000;stroke-width:10;stroke-linecap:square;stroke-linejoin:miter;stroke-miterlimit:10;stroke-dasharray:none;stroke-opacity:1"
             id="path100" /><path
             d="m 2640,990 h 560 v 550 h -560 z"
             style="fill:#b3ddff;fill-opacity:1;fill-rule:nonzero;stroke:none"
             id="path102" /><path
             d="m 2640,990 h 560 v 550 h -560 z"
             style="fill:none;stroke:#000000;stroke-width:10;stroke-linecap:square;stroke-linejoin:miter;stroke-miterlimit:10;stroke-dasharray:none;stroke-opacity:1"
             id="path104" /><path
             d="m 2640,3210 h 560 v 550 h -560 z"
             style="fill:#b3ddff;fill-opacity:1;fill-rule:nonzero;stroke:none"
             id="path106" /><path
             d="m 2640,3210 h 560 v 550 h -560 z"
             style="fill:none;stroke:#000000;stroke-width:10;stroke-linecap:square;stroke-linejoin:miter;stroke-miterlimit:10;stroke-dasharray:none;stroke-opacity:1"
             id="path108" /><path
             d="m 1530,1540 h 560 v 560 h -560 z"
             style="fill:#ffd9b3;fill-opacity:1;fill-rule:nonzero;stroke:none"
             id="path110" /><path
             d="m 1530,1540 h 560 v 560 h -560 z"
             style="fill:none;stroke:#000000;stroke-width:10;stroke-linecap:square;stroke-linejoin:miter;stroke-miterlimit:10;stroke-dasharray:none;stroke-opacity:1"
             id="path112" /><path
             d="m 1530,2650 h 560 v 560 h -560 z"
             style="fill:#ffd9b3;fill-opacity:1;fill-rule:nonzero;stroke:none"
             id="path114" /><path
             d="m 1530,2650 h 560 v 560 h -560 z"
             style="fill:none;stroke:#000000;stroke-width:10;stroke-linecap:square;stroke-linejoin:miter;stroke-miterlimit:10;stroke-dasharray:none;stroke-opacity:1"
             id="path116" /><path
             d="m 2640,1540 h 560 v 560 h -560 z"
             style="fill:#ffd9b3;fill-opacity:1;fill-rule:nonzero;stroke:none"
             id="path118" /><path
             d="m 2640,1540 h 560 v 560 h -560 z"
             style="fill:none;stroke:#000000;stroke-width:10;stroke-linecap:square;stroke-linejoin:miter;stroke-miterlimit:10;stroke-dasharray:none;stroke-opacity:1"
             id="path120" /><path
             d="m 2640,2650 h 560 v 560 h -560 z"
             style="fill:#ffd9b3;fill-opacity:1;fill-rule:nonzero;stroke:none"
             id="path122" /><path
             d="m 2640,2650 h 560 v 560 h -560 z"
             style="fill:none;stroke:#000000;stroke-width:10;stroke-linecap:square;stroke-linejoin:miter;stroke-miterlimit:10;stroke-dasharray:none;stroke-opacity:1"
             id="path124" /><path
             d="m 1530,2100 h 560 v 550 h -560 z"
             style="fill:#aff7ad;fill-opacity:1;fill-rule:nonzero;stroke:none"
             id="path126" /><path
             d="m 1530,2100 h 560 v 550 h -560 z"
             style="fill:none;stroke:#000000;stroke-width:10;stroke-linecap:square;stroke-linejoin:miter;stroke-miterlimit:10;stroke-dasharray:none;stroke-opacity:1"
             id="path128" /><path
             d="m 2090,1540 h 550 v 560 h -550 z"
             style="fill:#aff7ad;fill-opacity:1;fill-rule:nonzero;stroke:none"
             id="path130" /><path
             d="m 2090,1540 h 550 v 560 h -550 z"
             style="fill:none;stroke:#000000;stroke-width:10;stroke-linecap:square;stroke-linejoin:miter;stroke-miterlimit:10;stroke-dasharray:none;stroke-opacity:1"
             id="path132" /><path
             d="m 2090,2650 h 550 v 560 h -550 z"
             style="fill:#aff7ad;fill-opacity:1;fill-rule:nonzero;stroke:none"
             id="path134" /><path
             d="m 2090,2650 h 550 v 560 h -550 z"
             style="fill:none;stroke:#000000;stroke-width:10;stroke-linecap:square;stroke-linejoin:miter;stroke-miterlimit:10;stroke-dasharray:none;stroke-opacity:1"
             id="path136" /><path
             d="m 2640,2100 h 560 v 550 h -560 z"
             style="fill:#aff7ad;fill-opacity:1;fill-rule:nonzero;stroke:none"
             id="path138" /><path
             d="m 2640,2100 h 560 v 550 h -560 z"
             style="fill:none;stroke:#000000;stroke-width:10;stroke-linecap:square;stroke-linejoin:miter;stroke-miterlimit:10;stroke-dasharray:none;stroke-opacity:1"
             id="path140" /><path
             d="m 4030,2720 h 140 v 140 h -140 z"
             style="fill:#f7c6e0;fill-opacity:1;fill-rule:nonzero;stroke:none"
             id="path142" /><path
             d="m 4030,2720 h 140 v 140 h -140 z"
             style="fill:none;stroke:#000000;stroke-width:10;stroke-linecap:square;stroke-linejoin:miter;stroke-miterlimit:10;stroke-dasharray:none;stroke-opacity:1"
             id="path144" /><g
             id="g146"
             transform="scale(10)"><text
               transform="matrix(1,0,0,-1,422.979,274.852)"
               style="font-variant:normal;font-weight:normal;font-size:12px;font-family:Helvetica;-inkscape-font-specification:Helvetica;writing-mode:lr-tb;fill:#000000;fill-opacity:1;fill-rule:nonzero;stroke:none"
               id="text150"><tspan
                 x="0 8.0039997 14.676 21.348 28.02 34.692001 37.355999 44.028 47.363998"
                 y="0"
                 id="tspan148">Endpoint </tspan></text></g><path
             d="m 4030,2450 h 140 v 130 h -140 z"
             style="fill:#b3ddff;fill-opacity:1;fill-rule:nonzero;stroke:none"
             id="path152" /><path
             d="m 4030,2450 h 140 v 130 h -140 z"
             style="fill:none;stroke:#000000;stroke-width:10;stroke-linecap:square;stroke-linejoin:miter;stroke-miterlimit:10;stroke-dasharray:none;stroke-opacity:1"
             id="path154" /><g
             id="g156"
             transform="scale(10)"><text
               transform="matrix(1,0,0,-1,421.979,246.852)"
               style="font-variant:normal;font-weight:normal;font-size:12px;font-family:Helvetica;-inkscape-font-specification:Helvetica;writing-mode:lr-tb;fill:#000000;fill-opacity:1;fill-rule:nonzero;stroke:none"
               id="text160"><tspan
                 x="0 8.0039997 14.676 21.348 28.02"
                 y="0"
                 id="tspan158">Edge </tspan></text></g><path
             d="m 4030,2170 h 140 v 140 h -140 z"
             style="fill:#ffd9b3;fill-opacity:1;fill-rule:nonzero;stroke:none"
             id="path162" /><path
             d="m 4030,2170 h 140 v 140 h -140 z"
             style="fill:none;stroke:#000000;stroke-width:10;stroke-linecap:square;stroke-linejoin:miter;stroke-miterlimit:10;stroke-dasharray:none;stroke-opacity:1"
             id="path164" /><g
             id="g166"
             transform="scale(10)"><text
               transform="matrix(1,0,0,-1,423.319,219.852)"
               style="font-variant:normal;font-weight:normal;font-size:12px;font-family:Helvetica;-inkscape-font-specification:Helvetica;writing-mode:lr-tb;fill:#000000;fill-opacity:1;fill-rule:nonzero;stroke:none"
               id="text170"><tspan
                 x="0 8.0039997 14.676 24.672001 27.336 31.332001 38.004002 44.675999 51.348 58.02 64.692001 67.356003 74.028"
                 y="0"
                 id="tspan168">Semi-endpoint</tspan></text></g><path
             d="m 4030,1890 h 140 v 140 h -140 z"
             style="fill:#aff7ad;fill-opacity:1;fill-rule:nonzero;stroke:none"
             id="path172" /><path
             d="m 4030,1890 h 140 v 140 h -140 z"
             style="fill:none;stroke:#000000;stroke-width:10;stroke-linecap:square;stroke-linejoin:miter;stroke-miterlimit:10;stroke-dasharray:none;stroke-opacity:1"
             id="path174" /><g
             id="g176"
             transform="scale(10)"><text
               transform="matrix(1,0,0,-1,422.319,191.852)"
               style="font-variant:normal;font-weight:normal;font-size:12px;font-family:Helvetica;-inkscape-font-specification:Helvetica;writing-mode:lr-tb;fill:#000000;fill-opacity:1;fill-rule:nonzero;stroke:none"
               id="text322"><tspan
                 x="0 8.0039997 14.676 24.672001 27.336 31.332001 38.004002 44.675999 51.348 58.02"
                 y="0"
                 id="tspan178">Semi-edge </tspan><tspan
                 x="-313.659 -305.655 -297.651 -288.987 -285.651"
                 y="55"
                 id="tspan180">BAH 1</tspan><tspan
                 x="-315.32111 -303.9931 -295.98911 -287.3251 -283.98911"
                 y="69"
                 id="tspan182">WAH 2</tspan><tspan
                 x="-313.98907 -305.32507 -297.32108 -288.65707 -285.32108"
                 y="83"
                 id="tspan184">DAH 3</tspan><tspan
                 x="-313.659 -305.655 -297.651 -288.987 -285.651"
                 y="7"
                 id="tspan186">BAH 3</tspan><tspan
                 x="-313.98907 -305.32507 -297.32108 -288.65707 -285.32108"
                 y="21"
                 id="tspan188">DAH 3</tspan><tspan
                 x="-313.659 -305.655 -297.651 -288.987 -285.651"
                 y="-49"
                 id="tspan190">BAH 3</tspan><tspan
                 x="-313.98907 -305.32507 -297.32108 -288.65707 -285.32108"
                 y="-35"
                 id="tspan192">DAH 3</tspan><tspan
                 x="-313.659 -305.655 -297.651 -288.987 -285.651"
                 y="-104"
                 id="tspan194">BAH 3</tspan><tspan
                 x="-313.98907 -305.32507 -297.32108 -288.65707 -285.32108"
                 y="-90"
                 id="tspan196">DAH 3</tspan><tspan
                 x="-313.98907 -305.32507 -297.32108 -288.65707 -285.32108"
                 y="-167"
                 id="tspan198">DAH 1</tspan><tspan
                 x="-312.99298 -306.32098 -298.31699 -289.65298 -286.31699"
                 y="-153"
                 id="tspan200">LAH 2</tspan><tspan
                 x="-313.659 -305.655 -297.651 -288.987 -285.651"
                 y="-139"
                 id="tspan202">BAH 3</tspan><tspan
                 x="-299.65549"
                 y="111"
                 id="tspan204">1</tspan><tspan
                 x="-341.65549"
                 y="69"
                 id="tspan206">1</tspan><tspan
                 x="-258.659 -250.655 -242.651 -233.987 -230.651"
                 y="62"
                 id="tspan208">BAH 2</tspan><tspan
                 x="-260.32111 -248.99312 -240.98911 -232.32512 -228.98911"
                 y="76"
                 id="tspan210">WAH 2</tspan><tspan
                 x="-258.659 -250.655 -242.651 -233.987 -230.651"
                 y="0"
                 id="tspan212">BAH 4</tspan><tspan
                 x="-260.32111 -248.99312 -240.98911 -232.32512 -228.98911"
                 y="14"
                 id="tspan214">WAH 5</tspan><tspan
                 x="-258.98907 -250.32509 -242.32108 -233.65709 -230.32108"
                 y="28"
                 id="tspan216">DAH 6</tspan><tspan
                 x="-258.659 -250.655 -242.651 -233.987 -230.651"
                 y="-49"
                 id="tspan218">BAH 6</tspan><tspan
                 x="-258.98907 -250.32509 -242.32108 -233.65709 -230.32108"
                 y="-35"
                 id="tspan220">DAH 6</tspan><tspan
                 x="-258.98907 -250.32509 -242.32108 -233.65709 -230.32108"
                 y="-111"
                 id="tspan222">DAH 4</tspan><tspan
                 x="-257.99298 -251.32098 -243.31699 -234.65298 -231.31699"
                 y="-97"
                 id="tspan224">LAH 5</tspan><tspan
                 x="-258.659 -250.655 -242.651 -233.987 -230.651"
                 y="-83"
                 id="tspan226">BAH 6</tspan><tspan
                 x="-258.98907 -250.32509 -242.32108 -233.65709 -230.32108"
                 y="-160"
                 id="tspan228">DAH 2</tspan><tspan
                 x="-257.99298 -251.32098 -243.31699 -234.65298 -231.31699"
                 y="-146"
                 id="tspan230">LAH 2</tspan><tspan
                 x="-244.65549"
                 y="111"
                 id="tspan232">2</tspan><tspan
                 x="-341.65549"
                 y="14"
                 id="tspan234">2</tspan><tspan
                 x="-202.65948 -194.65549 -186.65149 -177.98749 -174.65149"
                 y="62"
                 id="tspan236">BAH 2</tspan><tspan
                 x="-204.32159 -192.99359 -184.98959 -176.32559 -172.98959"
                 y="76"
                 id="tspan238">WAH 2</tspan><tspan
                 x="-202.65948 -194.65549 -186.65149 -177.98749 -174.65149"
                 y="7"
                 id="tspan240">BAH 5</tspan><tspan
                 x="-204.32159 -192.99359 -184.98959 -176.32559 -172.98959"
                 y="21"
                 id="tspan242">WAH 5</tspan><tspan
                 x="-188.65599"
                 y="-42"
                 id="tspan244">7</tspan><tspan
                 x="-202.98959 -194.32559 -186.32159 -177.65759 -174.32159"
                 y="-104"
                 id="tspan246">DAH 5</tspan><tspan
                 x="-201.9935 -195.3215 -187.3175 -178.6535 -175.3175"
                 y="-90"
                 id="tspan248">LAH 5</tspan><tspan
                 x="-202.98959 -194.32559 -186.32159 -177.65759 -174.32159"
                 y="-160"
                 id="tspan250">DAH 2</tspan><tspan
                 x="-201.9935 -195.3215 -187.3175 -178.6535 -175.3175"
                 y="-146"
                 id="tspan252">LAH 2</tspan><tspan
                 x="-188.65601"
                 y="111"
                 id="tspan254">3</tspan><tspan
                 x="-341.65601"
                 y="-42"
                 id="tspan256">3</tspan><tspan
                 x="-147.66 -139.65601 -131.65201 -122.98801 -119.652"
                 y="62"
                 id="tspan258">BAH 2</tspan><tspan
                 x="-149.32211 -137.99411 -129.99011 -121.32611 -117.99011"
                 y="76"
                 id="tspan260">WAH 2</tspan><tspan
                 x="-149.32211 -137.99411 -129.99011 -121.32611 -117.99011"
                 y="0"
                 id="tspan262">WAH 4</tspan><tspan
                 x="-147.66 -139.65601 -131.65201 -122.98801 -119.652"
                 y="14"
                 id="tspan264">BAH 5</tspan><tspan
                 x="-146.99399 -140.32199 -132.31799 -123.65399 -120.31799"
                 y="28"
                 id="tspan266">LAH 6</tspan><tspan
                 x="-146.99399 -140.32199 -132.31799 -123.65399 -120.31799"
                 y="-49"
                 id="tspan268">LAH 6</tspan><tspan
                 x="-149.32211 -137.99413 -129.99011 -121.32612 -117.99012"
                 y="-35"
                 id="tspan270">WAH 6</tspan><tspan
                 x="-146.99399 -140.32199 -132.31799 -123.65399 -120.31799"
                 y="-111"
                 id="tspan272">LAH 4</tspan><tspan
                 x="-147.99008 -139.32608 -131.32208 -122.65808 -119.32208"
                 y="-97"
                 id="tspan274">DAH 5</tspan><tspan
                 x="-149.32211 -137.99411 -129.99011 -121.32611 -117.99011"
                 y="-83"
                 id="tspan276">WAH 6</tspan><tspan
                 x="-147.99008 -139.32608 -131.32208 -122.65808 -119.32208"
                 y="-160"
                 id="tspan278">DAH 2</tspan><tspan
                 x="-146.99399 -140.32199 -132.31799 -123.65399 -120.31799"
                 y="-146"
                 id="tspan280">LAH 2</tspan><tspan
                 x="-133.65649"
                 y="111"
                 id="tspan282">4</tspan><tspan
                 x="-341.65649"
                 y="-97"
                 id="tspan284">4</tspan><tspan
                 x="-93.322487 -81.994492 -73.990486 -65.326485 -61.990486"
                 y="55"
                 id="tspan286">WAH 1</tspan><tspan
                 x="-91.660378 -83.65638 -75.652374 -66.98838 -63.652378"
                 y="69"
                 id="tspan288">BAH 2</tspan><tspan
                 x="-90.994362 -84.322365 -76.318359 -67.654366 -64.318359"
                 y="83"
                 id="tspan290">LAH 3</tspan><tspan
                 x="-90.994362 -84.322365 -76.318359 -67.654366 -64.318359"
                 y="7"
                 id="tspan292">LAH 3</tspan><tspan
                 x="-93.322495 -81.994492 -73.990494 -65.326492 -61.990494"
                 y="21"
                 id="tspan294">WAH 3</tspan><tspan
                 x="-90.994362 -84.322365 -76.318359 -67.654366 -64.318359"
                 y="-49"
                 id="tspan296">LAH 3</tspan><tspan
                 x="-93.322495 -81.994492 -73.990494 -65.326492 -61.990494"
                 y="-35"
                 id="tspan298">WAH 3</tspan><tspan
                 x="-90.994362 -84.322365 -76.318359 -67.654366 -64.318359"
                 y="-104"
                 id="tspan300">LAH 3</tspan><tspan
                 x="-93.322495 -81.994492 -73.990494 -65.326492 -61.990494"
                 y="-90"
                 id="tspan302">WAH 3</tspan><tspan
                 x="-90.994362 -84.322365 -76.318359 -67.654366 -64.318359"
                 y="-167"
                 id="tspan304">LAH 1</tspan><tspan
                 x="-91.990456 -83.326454 -75.322456 -66.658455 -63.322456"
                 y="-153"
                 id="tspan306">DAH 2</tspan><tspan
                 x="-93.322487 -81.994484 -73.990486 -65.326485 -61.990486"
                 y="-139"
                 id="tspan308">WAH 3</tspan><tspan
                 x="-77.656883"
                 y="111"
                 id="tspan310">5</tspan><tspan
                 x="-341.65689"
                 y="-153"
                 id="tspan312">5</tspan><tspan
                 x="-211.99588 -203.99188 -193.99588 -187.32388 -184.65988 -181.99588 -178.65988 -171.98788 -165.31589"
                 y="132"
                 id="tspan314">Amplitude</tspan><tspan
                 x="-210.33417 -202.33017 -195.65817 -189.65817 -182.98616 -180.32216 -173.65016 -166.97816"
                 y="146"
                 id="tspan316">Envelope</tspan><tspan
                 x="-401.99417 -393.99017 -387.31818 -380.64618 -374.64618 -371.31018 -367.31418 -360.64215"
                 y="-49"
                 id="tspan318">Spectro-</tspan><tspan
                 x="-402.65979 -399.32379 -392.65179 -382.65579 -375.9838 -369.3118 -365.3158 -358.6438"
                 y="-35"
                 id="tspan320">temporal</tspan></text><text
               transform="matrix(1,0,0,-1,65.494709,78.725)"
               style="font-variant:normal;font-weight:normal;font-size:18px;font-family:Helvetica;-inkscape-font-specification:Helvetica;writing-mode:lr-tb;fill:#000000;fill-opacity:1;fill-rule:nonzero;stroke:none"
               id="text332"><tspan
                 x="0 12.006 24.011999"
                 y="0"
                 id="tspan324">BAH</tspan><tspan
                 x="-0.49492201 12.501078 24.507078"
                 y="-305"
                 id="tspan326">DAH</tspan><tspan
                 x="302.50708 319.49908 331.50507"
                 y="0"
                 id="tspan328">WAH</tspan><tspan
                 x="305.99887 316.00687 328.01288"
                 y="-305"
                 id="tspan330">LAH</tspan></text></g></g></g></g></g></svg>
